<?xml version="1.0" encoding="UTF-8" standalone="no"?>
<svg
   xmlns:osb="http://www.openswatchbook.org/uri/2009/osb"
   xmlns:dc="http://purl.org/dc/elements/1.1/"
   xmlns:cc="http://creativecommons.org/ns#"
   xmlns:rdf="http://www.w3.org/1999/02/22-rdf-syntax-ns#"
   xmlns:svg="http://www.w3.org/2000/svg"
   xmlns="http://www.w3.org/2000/svg"
   xmlns:xlink="http://www.w3.org/1999/xlink"
   xmlns:sodipodi="http://sodipodi.sourceforge.net/DTD/sodipodi-0.dtd"
   xmlns:inkscape="http://www.inkscape.org/namespaces/inkscape"
   id="svg8"
   version="1.1"
   viewBox="0 0 169.51854 66.419546"
   height="251.03448"
   width="640.70001"
   sodipodi:docname="logo_inkscape.svg"
   inkscape:label="keywords"
   inkscape:version="0.92.4 (5da689c313, 2019-01-14)"
   style="enable-background:new">
  <sodipodi:namedview
     pagecolor="#ffffff"
     bordercolor="#666666"
     borderopacity="1"
     objecttolerance="10"
     gridtolerance="10"
     guidetolerance="10"
     inkscape:pageopacity="0"
     inkscape:pageshadow="2"
     inkscape:window-width="1680"
     inkscape:window-height="925"
     id="namedview41"
     showgrid="false"
     inkscape:zoom="1"
     inkscape:cx="228.57999"
     inkscape:cy="179.66467"
     inkscape:window-x="0"
     inkscape:window-y="1"
     inkscape:window-maximized="1"
     inkscape:current-layer="svg8" />
  <defs
     id="defs2">
    <linearGradient
       id="linearGradient5162"
       osb:paint="solid">
      <stop
         style="stop-color:#000000;stop-opacity:1;"
         offset="0"
         id="stop5160" />
    </linearGradient>
    <linearGradient
       id="linearGradient5148"
       osb:paint="solid">
      <stop
         style="stop-color:#000000;stop-opacity:1;"
         offset="0"
         id="stop5146" />
    </linearGradient>
    <linearGradient
       osb:paint="solid"
       id="linearGradient4589">
      <stop
         id="stop4587"
         offset="0"
         style="stop-color:#000000;stop-opacity:1;" />
    </linearGradient>
    <linearGradient
       osb:paint="solid"
       id="linearGradient4583">
      <stop
         id="stop4581"
         offset="0"
         style="stop-color:#ffffff;stop-opacity:1;" />
    </linearGradient>
    <clipPath
       id="clipPath4570"
       clipPathUnits="userSpaceOnUse">
      <g
         id="use4572">
        <path
           style="fill:#fbb500;fill-opacity:1;stroke:none;stroke-width:0.26458332px;stroke-linecap:butt;stroke-linejoin:miter;stroke-opacity:1"
           d="m -24.60625,280.33123 c 0,0 105.568749,-108.74375 226.48333,-98.16041 120.91458,10.58333 21.43125,125.4125 21.43125,125.4125 0,0 -168.274997,-93.13334 -191.822914,0.26458 C 7.9374999,401.24581 -24.60625,280.33123 -24.60625,280.33123 Z"
           id="path3952"
           inkscape:connector-curvature="0" />
      </g>
    </clipPath>
    <linearGradient
       gradientUnits="userSpaceOnUse"
       y2="53.152309"
       x2="257.28247"
       y1="53.152309"
       x1="18.983854"
       id="linearGradient4591"
       xlink:href="#linearGradient4583" />
    <filter
       id="filter4643"
       style="color-interpolation-filters:sRGB">
      <feBlend
         id="feBlend4645"
         in2="BackgroundImage"
         mode="overlay" />
    </filter>
    <clipPath
       clipPathUnits="userSpaceOnUse"
       id="clipPath3965">
      <g
         inkscape:label="Clip"
         id="use3967">
        <rect
           ry="4.193645"
           y="2.6590488"
           x="6.7865629"
           height="101.04438"
           width="257.8894"
           id="rect3971"
           style="opacity:1;fill:#001e62;fill-opacity:0.98340251;stroke:none;stroke-width:0.25135416"
           inkscape:label="navy rect"
           clip-path="none" />
      </g>
    </clipPath>
    <clipPath
       clipPathUnits="userSpaceOnUse"
       id="clipPath3981">
      <g
         inkscape:label="Clip"
         id="use3983">
        <rect
           clip-path="none"
           inkscape:label="navy rect"
           style="opacity:1;fill:#001e62;fill-opacity:0.98340251;stroke:none;stroke-width:0.25135416"
           id="rect3988"
           width="257.8894"
           height="101.04438"
           x="6.7865629"
           y="2.6590488"
           ry="4.193645" />
      </g>
    </clipPath>
    <clipPath
       clipPathUnits="userSpaceOnUse"
       id="clipPath4084">
      <rect
         ry="4.193645"
         y="2.6590488"
         x="6.7865629"
         height="101.04438"
         width="257.8894"
         id="rect4086"
         style="opacity:1;fill:#001e62;fill-opacity:0.98340251;stroke:none;stroke-width:0.25135416"
         inkscape:label="navy rect"
         clip-path="none" />
    </clipPath>
    <filter
       inkscape:collect="always"
       style="color-interpolation-filters:sRGB"
       id="filter1120"
       x="-0.25192717"
       width="1.5038543"
       y="-1.2618239"
       height="3.5236478">
      <feGaussianBlur
         inkscape:collect="always"
         stdDeviation="22.522345"
         id="feGaussianBlur1122" />
    </filter>
  </defs>
  <metadata
     id="metadata5">
    <rdf:RDF>
      <cc:Work
         rdf:about="">
        <dc:format>image/svg+xml</dc:format>
        <dc:type
           rdf:resource="http://purl.org/dc/dcmitype/StillImage" />
        <dc:title />
      </cc:Work>
    </rdf:RDF>
  </metadata>
  <g
     id="g4054"
     clip-path="url(#clipPath4084)"
     inkscape:label="rect_clip"
     transform="matrix(0.6573304,0,0,0.6573304,-4.4610141,-1.7478736)">
    <g
       inkscape:groupmode="layer"
       id="layer5"
       inkscape:label="background"
       style="display:inline">
      <rect
         ry="4.193645"
         y="2.6590488"
         x="6.7865629"
         height="101.04438"
         width="257.8894"
         id="rect3993"
         style="opacity:1;fill:#001e62;fill-opacity:0.98340251;stroke:none;stroke-width:0.25135416"
         inkscape:label="navy rect"
         clip-path="none" />
      <path
         style="fill:#fbb500;fill-opacity:1;stroke:none;stroke-width:0.24498357px;stroke-linecap:butt;stroke-linejoin:miter;stroke-opacity:1"
         d="m -10.054167,85.156796 c 0,0 97.181524,-101.275635 208.489677,-91.4191191 111.30817,9.8565064 19.72858,116.7996431 19.72858,116.7996431 0,0 -154.905879,-86.737296 -176.582962,0.24641 -21.677081,86.98369 -51.635295,-25.626934 -51.635295,-25.626934 z"
         id="path4552"
         inkscape:connector-curvature="0"
         inkscape:label="yellow_bezier" />
    </g>
    <g
       inkscape:label="keywords"
       id="layer2"
       style="display:inline;opacity:0.46086958;filter:url(#filter4643)">
      <text
         xml:space="preserve"
         style="font-style:normal;font-variant:normal;font-weight:normal;font-stretch:normal;font-size:21.62353134px;line-height:1.25;font-family:'Liberation Sans';-inkscape-font-specification:'Liberation Sans';letter-spacing:0px;word-spacing:0px;fill:#ffffff;fill-opacity:0.19607843;stroke:none;stroke-width:0.33786768"
         x="-113.59579"
         y="212.07814"
         id="text819"
         transform="matrix(0.8610155,-0.50290931,0.49710753,0.87106445,0,-191.16665)"><tspan
           id="tspan817"
           x="-113.59579"
           y="212.07814"
           style="font-style:normal;font-variant:normal;font-weight:normal;font-stretch:normal;font-size:21.62353134px;font-family:'Liberation Sans';-inkscape-font-specification:'Liberation Sans';fill:#ffffff;fill-opacity:0.19607843;stroke-width:0.33786768">JavaFX</tspan></text>
      <text
         transform="matrix(0.8610155,-0.50290931,0.49710753,0.87106445,0,-191.16665)"
         id="text4530"
         y="244.8062"
         x="-133.7205"
         style="font-style:normal;font-variant:normal;font-weight:normal;font-stretch:normal;font-size:21.62353134px;line-height:1.25;font-family:'Liberation Sans';-inkscape-font-specification:'Liberation Sans';letter-spacing:0px;word-spacing:0px;fill:#ffffff;fill-opacity:0.19607843;stroke:none;stroke-width:0.33786768"
         xml:space="preserve"><tspan
           style="font-style:normal;font-variant:normal;font-weight:normal;font-stretch:normal;font-size:21.62353134px;font-family:'Liberation Sans';-inkscape-font-specification:'Liberation Sans';fill:#ffffff;fill-opacity:0.19607843;stroke-width:0.33786768"
           y="244.8062"
           x="-133.7205"
           id="tspan4528">Spring Boot 2</tspan></text>
      <text
         xml:space="preserve"
         style="font-style:normal;font-variant:normal;font-weight:normal;font-stretch:normal;font-size:21.62353134px;line-height:1.25;font-family:'Liberation Sans';-inkscape-font-specification:'Liberation Sans';letter-spacing:0px;word-spacing:0px;fill:#ffffff;fill-opacity:0.19607843;stroke:none;stroke-width:0.33786768"
         x="-49.21423"
         y="275.67484"
         id="text4534"
         transform="matrix(0.8610155,-0.50290931,0.49710753,0.87106445,0,-191.16665)"><tspan
           id="tspan4532"
           x="-49.21423"
           y="275.67484"
           style="font-style:normal;font-variant:normal;font-weight:normal;font-stretch:normal;font-size:21.62353134px;font-family:'Liberation Sans';-inkscape-font-specification:'Liberation Sans';fill:#ffffff;fill-opacity:0.19607843;stroke-width:0.33786768">module-path</tspan></text>
      <text
         xml:space="preserve"
         style="font-style:normal;font-variant:normal;font-weight:normal;font-stretch:normal;font-size:21.62353134px;line-height:1.25;font-family:'Liberation Sans';-inkscape-font-specification:'Liberation Sans';letter-spacing:0px;word-spacing:0px;fill:#ffffff;fill-opacity:0.19607843;stroke:none;stroke-width:0.33786768"
         x="11.613729"
         y="341.16861"
         id="text4542"
         transform="matrix(0.8610155,-0.50290931,0.49710753,0.87106445,0,-191.16665)"><tspan
           id="tspan4540"
           x="11.613729"
           y="341.16861"
           style="font-style:normal;font-variant:normal;font-weight:normal;font-stretch:normal;font-size:21.62353134px;font-family:'Liberation Sans';-inkscape-font-specification:'Liberation Sans';fill:#ffffff;fill-opacity:0.19607843;stroke-width:0.33786768">CI &amp; Docker</tspan></text>
      <text
         transform="matrix(0.8610155,-0.50290931,0.49710753,0.87106445,0,-191.16665)"
         id="text4546"
         y="309.4213"
         x="-48.109173"
         style="font-style:normal;font-variant:normal;font-weight:normal;font-stretch:normal;font-size:21.62353134px;line-height:1.25;font-family:'Liberation Sans';-inkscape-font-specification:'Liberation Sans';letter-spacing:0px;word-spacing:0px;fill:#ffffff;fill-opacity:0.19607843;stroke:none;stroke-width:0.33786768"
         xml:space="preserve"><tspan
           style="font-style:normal;font-variant:normal;font-weight:normal;font-stretch:normal;font-size:21.62353134px;font-family:'Liberation Sans';-inkscape-font-specification:'Liberation Sans';fill:#ffffff;fill-opacity:0.19607843;stroke-width:0.33786768"
           y="309.4213"
           x="-48.109173"
           id="tspan4544">Integration testing</tspan></text>
    </g>
    <g
       inkscape:groupmode="layer"
       id="layer4"
       inkscape:label="tech-logos"
       style="display:inline">
      <g
         id="g180"
         transform="matrix(0.06437677,0,0,0.06463438,58.427356,79.722428)"
         inkscape:label="java_logo">
        <path
           id="path107"
           d="m 82.553949,267.47252 c 0,0 -13.198429,7.67535 9.392873,10.27259 27.368728,3.12226 41.356568,2.6745 71.517088,-3.03384 0,0 7.92949,4.97199 19.00358,9.27837 -67.61193,28.97734 -153.019112,-1.67843 -99.913541,-16.51712"
           inkscape:connector-curvature="0"
           style="fill:#5382a1" />
        <path
           id="path109"
           d="m 74.292131,229.659 c 0,0 -14.803317,10.95773 7.804742,13.29617 29.236127,3.01615 52.324537,3.26284 92.276367,-4.4302 0,0 5.52587,5.60221 14.21498,8.66584 C 106.84137,271.09469 15.79008,249.0759 74.292131,229.659"
           inkscape:connector-curvature="0"
           style="fill:#5382a1" />
        <path
           id="path111"
           d="m 143.94182,165.5147 c 16.65955,19.18046 -4.37714,36.44044 -4.37714,36.44044 0,0 42.30144,-21.83726 22.8743,-49.18272 -18.14435,-25.50132 -32.05865,-38.17193 43.26772,-81.858558 0,0 -118.237551,29.530298 -61.76488,94.600838"
           inkscape:connector-curvature="0"
           style="fill:#e76f00" />
        <path
           id="path113"
           d="m 233.36401,295.44169 c 0,0 9.7671,8.04771 -10.75665,14.27363 -39.0265,11.82254 -162.432466,15.39258 -196.714124,0.47104 -12.323374,-5.36111 10.786444,-12.80094 18.055913,-14.36207 7.581324,-1.64399 11.913775,-1.33771 11.913775,-1.33771 -13.704844,-9.65446 -88.582517,18.95703 -38.034153,27.15089 137.852739,22.35578 251.292389,-10.06685 215.535239,-26.19578"
           inkscape:connector-curvature="0"
           style="fill:#5382a1" />
        <path
           id="path115"
           d="m 88.900887,190.47982 c 0,0 -62.772131,14.90944 -22.229178,20.32361 17.118487,2.2919 51.243751,1.77338 83.030571,-0.88995 25.97795,-2.19136 52.06296,-6.85056 52.06296,-6.85056 0,0 -9.16015,3.92285 -15.78729,8.448 -63.744,16.76474 -186.88558636,8.96559 -151.434706,-8.18269 29.980858,-14.49239 54.357643,-12.84841 54.357643,-12.84841"
           inkscape:connector-curvature="0"
           style="fill:#5382a1" />
        <path
           id="path117"
           d="m 201.50644,253.42231 c 64.79872,-33.67191 34.83834,-66.03031 13.9264,-61.67086 -5.12558,1.06682 -7.41096,1.99121 -7.41096,1.99121 0,0 1.90277,-2.98077 5.53704,-4.27101 41.37053,-14.54452 73.18714,42.89722 -13.35482,65.64771 0,9.3e-4 1.00259,-0.89554 1.30234,-1.69705"
           inkscape:connector-curvature="0"
           style="fill:#5382a1" />
        <path
           id="path119"
           d="m 162.43898,0.37143273 c 0,0 35.88655,35.89864727 -34.03683,91.10062527 -56.071445,44.281482 -12.78603,69.529602 -0.0233,98.376612 C 95.649047,160.31837 71.629731,134.32273 87.743767,110.12841 111.39538,74.613294 176.91834,57.394269 162.43898,0.37143273"
           inkscape:connector-curvature="0"
           style="fill:#e76f00" />
        <path
           id="path121"
           d="m 95.268305,344.66537 c 62.198695,3.98149 157.711825,-2.20905 159.973935,-31.63974 0,0 -4.34828,11.15694 -51.40387,20.01734 -53.08788,9.99051 -118.564304,8.82408 -157.399039,2.42129 9.31e-4,-9.3e-4 7.949963,6.57967 48.828974,9.20111"
           inkscape:connector-curvature="0"
           style="fill:#5382a1" />
      </g>
      <path
         id="path4162"
         d="m 96.349625,84.778934 a 7.9305034,7.9305034 0 0 1 -0.91904,1.630024 8.6269724,8.6269724 0 1 0 -12.046693,12.349632 l 0.318809,0.28144 a 8.6232091,8.6232091 0 0 0 14.157858,-5.981687 c 0.235208,-2.196122 -0.409646,-4.975548 -1.51067,-8.27914 z M 84.610982,98.80858 a 0.7375962,0.7375962 0 1 1 -0.108601,-1.036772 0.7375962,0.7375962 0 0 1 0.108601,1.036772 z m 11.703155,-2.583196 c -2.128924,2.835876 -6.674381,1.878935 -9.588743,2.016562 0,0 -0.516639,0.03038 -1.036776,0.115585 0,0 0.19622,-0.08333 0.447016,-0.178217 2.04667,-0.712328 3.014086,-0.849418 4.257307,-1.489169 2.340733,-1.189993 4.65621,-3.796041 5.137368,-6.50504 -0.890549,2.606049 -3.594713,4.847061 -6.056145,5.757229 -1.687002,0.621742 -4.734695,1.227355 -4.734695,1.227355 l -0.122844,-0.06585 c -2.073551,-1.008011 -2.137524,-5.498908 1.633517,-6.94722 1.651265,-0.635989 3.231011,-0.286813 5.014261,-0.712328 1.904205,-0.452396 4.10731,-1.878936 5.003773,-3.740667 1.002626,2.97834 2.210635,7.639926 0.04458,10.523648 z"
         inkscape:connector-curvature="0"
         style="fill:#68bd45;stroke-width:0.2688033"
         inkscape:label="spring" />
      <g
         id="surface1"
         transform="matrix(0.52948417,0,0,0.52948417,104.78846,79.626887)"
         inkscape:label="docker">
        <path
           id="path4234"
           d="m 40,20 c 0.390625,-1.734375 -0.09375,-3.78125 -2.5,-6 -3.914062,3.542969 -2.796875,7.226563 -1.5,9 0,0 -0.164062,1 -4,1 -3.835937,0 -30,0 -30,0 0,0 -1.832031,16 16,16 15.59375,0 19.972656,-12.003906 20.828125,-15.074219 0.355469,0.04687 0.75,0.07813 1.171875,0.07422 2.148438,-0.01563 4.929688,-1.171875 6,-5.484375 C 43.160156,18.53125 41.339844,18.976563 40,20 Z"
           style="fill:#03a9f4"
           inkscape:connector-curvature="0" />
        <path
           id="path4236"
           d="M 2.164063,28 C 2.898438,32.738281 5.984375,40 18,40 30.183594,40 35.523438,32.671875 37.683594,28 Z"
           style="fill:#0288d1"
           inkscape:connector-curvature="0" />
        <path
           id="path4238"
           d="M 19.8125,39.9375 C 18.890625,39.617188 14.738281,38.847656 14,33 9.789063,34.863281 6.0625,34.375 4.421875,34.007813 6.582031,37.238281 10.589844,40 18,40 c 0.621094,0 1.222656,-0.02344 1.8125,-0.0625 z"
           style="fill:#81d4fa"
           inkscape:connector-curvature="0" />
        <path
           id="path4240"
           d="m 20,32 c 0,1.105469 -0.894531,2 -2,2 -1.105469,0 -2,-0.894531 -2,-2 0,-1.105469 0.894531,-2 2,-2 1.105469,0 2,0.894531 2,2 z"
           style="fill:#ffffff"
           inkscape:connector-curvature="0" />
        <path
           id="path4242"
           d="m 14.914063,33.597656 c 0.222656,0.503907 0.01953,1.160157 -0.511719,1.316407 -3.300781,0.972656 -6.144531,1.101562 -8.296875,1.101562 -0.640625,-0.617187 -1.191406,-1.277344 -1.65625,-1.960937 2.585937,0 6.710937,-0.121094 9.144531,-0.964844 0.523438,-0.183594 1.097656,0 1.320313,0.507812 z M 2,27 c 0,0 1.875,0.125 3,-1 1.875,1.6875 5.941406,1.089844 7,0 1.0625,1.6875 6.9375,1.375 8,0 1.25,1.4375 6.625,1.75 8,0 0.480469,1.460938 6.820313,1.875 8,0 1.0625,1.089844 5.0625,1.9375 7.3125,0 C 43.875,27.1875 46,27 46,27 v 1 H 2 m 15,4 c 0,0.550781 0.449219,1 1,1 0.550781,0 1,-0.449219 1,-1 0,-0.550781 -0.449219,-1 -1,-1 -0.550781,0 -1,0.449219 -1,1 z"
           style="fill:#37474f"
           inkscape:connector-curvature="0" />
        <path
           id="path4244"
           d="M 11,24 H 6 v -5 h 5 z m 10,-5 h -5 v 5 h 5 z m 10,0 h -5 v 5 h 5 z M 16,14 h -5 v 5 h 5 z m 10,0 h -5 v 5 h 5 z"
           style="fill:#01579b"
           inkscape:connector-curvature="0" />
        <path
           id="path4246"
           d="m 16,24 h -5 v -5 h 5 z m 10,-5 h -5 v 5 h 5 z M 26,9 h -5 v 5 h 5 z m -5,5 h -5 v 5 h 5 z"
           style="fill:#0288d1"
           inkscape:connector-curvature="0" />
      </g>
      <g
         id="g4325"
         font-weight="bold"
         font-style="oblique"
         style="font-style:oblique;font-weight:bold;font-family:Verdana;stroke:none;stroke-width:2.2330811;stroke-linejoin:miter;stroke-miterlimit:4;stroke-dasharray:none;stroke-opacity:0.97940506"
         transform="matrix(0.11848353,0,0,0.11848353,124.3394,87.213522)"
         inkscape:label="maven">
        <path
           style="font-size:96px;fill:#ffffff;fill-opacity:1;stroke:none;stroke-width:1;stroke-linejoin:miter;stroke-miterlimit:4;stroke-dasharray:none;stroke-opacity:0.97940506"
           d="m 524.82227,340.02344 c -1.35924,0 -2.6263,0.30588 -3.80079,0.91406 -1.16128,0.60818 -2.46831,1.45229 -3.91992,2.53516 l 0.57422,-2.75782 h -7.16601 l -5.14649,24.98633 h 7.16602 l 3.64258,-17.71094 c 0.84457,-0.50434 1.60237,-0.90449 2.27539,-1.20117 0.67301,-0.29667 1.29388,-0.44531 1.86132,-0.44531 1.09531,0 1.84044,0.2077 2.23633,0.62305 0.40909,0.40051 0.61328,1.05217 0.61328,1.95703 0,0.44501 -0.0716,1.09197 -0.21679,1.9375 -0.14516,0.84552 -0.29039,1.63057 -0.43555,2.35742 l -2.57422,12.48242 h 7.20508 l 3.64258,-17.71094 c 0.92375,-0.54884 1.70884,-0.9576 2.35547,-1.22461 0.65982,-0.28184 1.24705,-0.42187 1.76171,-0.42187 1.08211,0 1.83553,0.1991 2.25782,0.59961 0.42228,0.40051 0.63281,1.03222 0.63281,1.89258 0,0.48951 -0.0716,1.12787 -0.2168,1.91406 -0.13196,0.78619 -0.28547,1.60839 -0.45703,2.46875 l -2.57226,12.48242 h 7.20507 l 3.34571,-16.26562 c 0.11876,-0.57852 0.20502,-1.13396 0.25781,-1.66797 0.066,-0.53402 0.0977,-1.03039 0.0977,-1.49024 0,-2.00255 -0.51365,-3.54604 -1.54297,-4.6289 -1.02933,-1.08287 -2.52154,-1.625 -4.47461,-1.625 -1.30645,0 -2.65782,0.36494 -4.05664,1.09179 -1.39883,0.72686 -2.98363,1.80918 -4.75196,3.24805 -0.39589,-1.42404 -1.09472,-2.49971 -2.09765,-3.22656 -1.00293,-0.74169 -2.23637,-1.11328 -3.70117,-1.11328 z m 83.85351,5.17187 c -1.92419,0 -3.69146,0.31954 -5.30078,0.96094 -1.60932,0.6414 -2.95056,1.51122 -4.02344,2.60742 -1.11953,1.13119 -1.97751,2.44284 -2.57226,3.93555 -0.59475,1.4927 -0.89063,3.12981 -0.89063,4.91406 0,2.61224 0.90928,4.65958 2.72852,6.14063 1.81923,1.48104 4.40112,2.22265 7.74804,2.22265 1.5277,0 2.96951,-0.14004 4.32227,-0.41992 1.35276,-0.26822 2.64075,-0.67059 3.86523,-1.20703 l 1.17188,-5.05664 h -0.69922 c -0.90962,0.57143 -1.9826,1.09017 -3.21875,1.55664 -1.22448,0.46647 -2.52625,0.70117 -3.90234,0.70117 -1.97084,0 -3.43436,-0.38657 -4.39063,-1.15625 -0.95626,-0.76968 -1.43359,-1.83674 -1.43359,-3.20117 v -0.19141 -0.21093 h 14.58984 c 0.25656,-0.74636 0.45973,-1.49785 0.61133,-2.25586 0.16326,-0.75802 0.24414,-1.53318 0.24414,-2.32618 0,-2.30903 -0.74557,-4.05263 -2.23828,-5.23046 -1.48104,-1.1895 -3.68423,-1.78321 -6.61133,-1.78321 z m -48.01758,0.0508 c -1.52769,0 -3.06221,0.11833 -4.60156,0.35157 -1.53935,0.23323 -2.67546,0.44231 -3.41016,0.6289 l -0.92773,4.65235 h 0.57813 c 0.62973,-0.23324 1.56859,-0.52515 2.8164,-0.875 1.25947,-0.34986 2.40742,-0.52344 3.44531,-0.52344 1.52769,0 2.67564,0.16962 3.44532,0.50781 0.76967,0.32653 1.15429,0.90248 1.15429,1.73047 0,0.19825 -0.0158,0.3797 -0.0508,0.54297 -0.035,0.1516 -0.0587,0.26206 -0.0703,0.33203 -2.18075,0.12828 -4.21035,0.32748 -6.08789,0.5957 -1.86588,0.26822 -3.47536,0.70414 -4.82813,1.31055 -1.44606,0.6414 -2.53679,1.5053 -3.27148,2.58984 -0.73469,1.07289 -1.10156,2.38454 -1.10156,3.93555 0,1.46938 0.51282,2.66466 1.53906,3.58594 1.0379,0.90962 2.37321,1.36523 4.00586,1.36523 1.01457,0 1.80748,-0.071 2.37891,-0.21094 0.57142,-0.13994 1.18483,-0.3431 1.83789,-0.61132 0.47813,-0.20991 0.99687,-0.49591 1.55664,-0.85742 0.55976,-0.36152 1.03709,-0.67118 1.43359,-0.92774 l -0.47266,2.08203 h 6.26368 l 3.07812,-13.36523 c 0.07,-0.27988 0.12127,-0.60534 0.15625,-0.97852 0.0466,-0.37317 0.0703,-0.67692 0.0703,-0.91015 0,-1.69096 -0.72191,-2.93948 -2.16797,-3.74415 -1.43439,-0.80466 -3.69082,-1.20703 -6.76953,-1.20703 z m 75.83008,0.0176 c -1.28279,0 -2.46032,0.24062 -3.5332,0.71875 -1.06122,0.47813 -2.23875,1.14283 -3.5332,1.99414 l 0.50585,-2.16992 h -6.33203 l -4.52929,19.64453 h 6.33203 l 3.20117,-13.92383 c 0.81632,-0.43148 1.55007,-0.75298 2.20312,-0.96289 0.65306,-0.22157 1.23097,-0.33203 1.73243,-0.33203 1.02623,0 1.73235,0.17554 2.11718,0.52539 0.38484,0.34986 0.57618,0.90214 0.57618,1.66016 0,0.44315 -0.0473,0.92243 -0.14063,1.43555 -0.0933,0.51311 -0.2215,1.13048 -0.38477,1.85351 l -2.23828,9.74414 h 6.36719 l 2.93945,-12.78711 c 0.10496,-0.44314 0.17992,-0.86918 0.22657,-1.27734 0.0466,-0.40816 0.0703,-0.78687 0.0703,-1.13672 0,-1.62099 -0.48916,-2.85768 -1.46875,-3.70898 -0.97959,-0.85131 -2.3504,-1.27735 -4.11133,-1.27735 z m -62.58789,0.54297 2.97266,19.64453 h 7.17187 l 12.12305,-19.64453 h -6.76953 l -7.57422,13.52148 -1.43555,-13.52148 z m 34.05664,3.32422 c 1.07288,0 1.89537,0.24458 2.4668,0.73437 0.57142,0.4898 0.85742,1.19591 0.85742,2.11719 0,0.18659 -0.0118,0.36609 -0.0352,0.54102 -0.0117,0.17492 -0.0353,0.36821 -0.0703,0.57812 h -8.48242 c 0.45481,-1.24781 1.11951,-2.22217 1.99414,-2.92187 0.88629,-0.69971 1.97508,-1.04883 3.26953,-1.04883 z m -45.79492,7.04883 -0.96289,4.14648 c -0.61807,0.44315 -1.28277,0.81002 -1.99414,1.10156 -0.69971,0.27989 -1.35849,0.41993 -1.97656,0.41993 -0.94461,0 -1.66652,-0.13413 -2.16797,-0.40235 -0.4898,-0.27988 -0.73438,-0.75916 -0.73438,-1.43554 0,-0.76968 0.18542,-1.38705 0.5586,-1.85352 0.37317,-0.46647 0.91558,-0.82743 1.62695,-1.08398 0.68804,-0.2449 1.52236,-0.43227 2.50195,-0.56055 0.97959,-0.12828 2.02891,-0.23874 3.14844,-0.33203 z"
           transform="matrix(2.2330811,0,0,2.2330811,-1049.4235,-736.08139)"
           id="text4319"
           inkscape:connector-curvature="0" />
      </g>
    </g>
    <g
       inkscape:groupmode="layer"
       id="layer6"
       inkscape:label="easyfxml"
       style="display:inline">
      <g
         style="display:inline;opacity:1;fill:#ffffff;fill-opacity:0.51716243;stroke:none;stroke-width:0.5291667;stroke-linecap:square;stroke-linejoin:miter;stroke-miterlimit:4;stroke-dasharray:none;stroke-opacity:1;filter:url(#filter1120)"
         id="layer3"
         transform="translate(-6.8791667,-0.26458334)"
         inkscape:label="white_blur">
        <g
           aria-label="EasyFXML"
           style="font-style:normal;font-variant:normal;font-weight:bold;font-stretch:normal;font-size:50.79999924px;line-height:1.25;font-family:'DejaVu Sans Mono';-inkscape-font-specification:'DejaVu Sans Mono Bold';letter-spacing:0px;word-spacing:0px;fill:#ffffff;fill-opacity:0.51716243;stroke:none;stroke-width:0.5291667;stroke-linecap:square;stroke-linejoin:miter;stroke-miterlimit:4;stroke-dasharray:none;stroke-opacity:1"
           id="text4576">
          <path
             sodipodi:type="inkscape:offset"
             inkscape:radius="0"
             inkscape:original="M 39.423828 30.880859 L 39.423828 65.880859 L 57.703125 65.880859 L 57.703125 62.333984 L 43.490234 62.333984 L 43.490234 48.816406 L 57.009766 48.816406 L 57.009766 45.267578 L 43.490234 45.267578 L 43.490234 34.429688 L 57.554688 34.429688 L 57.554688 30.880859 L 39.423828 30.880859 z M 168.25781 30.880859 L 161.26367 65.880859 L 165.33203 65.880859 L 168.63086 49.410156 L 181.82617 49.410156 L 182.52148 45.863281 L 169.32422 45.863281 L 171.63281 34.429688 L 186.11719 34.429688 L 186.8125 30.880859 L 168.25781 30.880859 z M 194.55078 30.880859 L 202.26562 48.046875 L 187.50781 65.880859 L 192.02148 65.880859 L 203.70508 51.544922 L 209.70703 65.880859 L 214.2207 65.880859 L 206.58203 48.046875 L 220.96875 30.880859 L 216.50391 30.880859 L 205.04297 44.748047 L 199.21484 30.880859 L 194.55078 30.880859 z M 227.0957 30.880859 L 220.09961 65.880859 L 224.01953 65.880859 L 230.02148 35.867188 L 232.42773 50.228516 L 236.27344 50.228516 L 244.43359 35.867188 L 238.43164 65.880859 L 242.34961 65.880859 L 249.3457 30.880859 L 244.0625 30.880859 L 235.05664 46.832031 L 232.37891 30.880859 L 227.0957 30.880859 z M 259.63867 30.880859 L 252.64453 65.880859 L 271.69336 65.880859 L 272.41406 62.333984 L 257.43164 62.333984 L 263.70703 30.880859 L 259.63867 30.880859 z M 79.953125 39.414062 C 76.926954 39.414062 73.653125 40.316667 70.130859 42.119141 L 71.148438 44.896484 C 72.223308 44.317708 73.503906 43.821614 74.992188 43.408203 C 76.497005 42.978255 77.737239 42.763672 78.712891 42.763672 C 82.847005 42.763672 84.914062 44.978386 84.914062 49.410156 L 84.914062 50.650391 L 80.574219 50.998047 C 78.622917 51.146875 76.935807 51.419531 75.513672 51.816406 C 74.091537 52.196745 72.884765 52.726302 71.892578 53.404297 C 70.900391 54.065755 70.147396 54.883724 69.634766 55.859375 C 69.122136 56.835026 68.865234 57.961068 68.865234 59.234375 C 68.865234 61.384115 69.593619 63.145052 71.048828 64.517578 C 72.520573 65.873567 74.216537 66.550781 76.134766 66.550781 C 79.921615 66.550781 82.913933 64.939453 85.113281 61.714844 C 85.113281 63.451172 85.269792 64.839063 85.583984 65.880859 L 89.429688 65.880859 C 88.999739 64.127995 88.785156 62.127865 88.785156 59.878906 L 88.785156 48.765625 C 88.785156 42.53138 85.840104 39.414062 79.953125 39.414062 z M 110.46289 39.414062 C 107.23828 39.414062 104.65053 40.068619 102.69922 41.375 C 100.74792 42.68138 99.773438 44.449219 99.773438 46.681641 C 99.773438 47.706901 99.979165 48.634114 100.39258 49.460938 C 100.82252 50.28776 101.44362 50.998437 102.25391 51.59375 C 103.06419 52.189062 103.94023 52.642839 104.88281 52.957031 C 105.82539 53.254688 107.29596 53.710417 109.29688 54.322266 C 111.77734 55.082943 113.34831 55.81823 114.00977 56.529297 C 114.68776 57.223828 115.02734 58.017188 115.02734 58.910156 C 115.02734 60.233073 114.35013 61.301041 112.99414 62.111328 C 111.65469 62.905078 109.90951 63.300781 107.75977 63.300781 C 105.2793 63.300781 102.95534 62.788933 100.78906 61.763672 L 100.04492 65.111328 C 102.11198 66.070443 104.7332 66.550781 107.9082 66.550781 C 111.09974 66.550781 113.72982 65.840104 115.79688 64.417969 C 117.86393 62.979297 118.89648 61.028385 118.89648 58.564453 C 118.89648 57.307682 118.62383 56.208204 118.07812 55.265625 C 117.54896 54.306511 116.74674 53.495443 115.67188 52.833984 C 114.597 52.15599 113.20911 51.577214 111.50586 51.097656 L 107.80859 50.03125 C 106.12187 49.551693 104.99779 49.03789 104.43555 48.492188 C 103.87331 47.929948 103.5918 47.277343 103.5918 46.533203 C 103.5918 45.359114 104.20403 44.425 105.42773 43.730469 C 106.65143 43.019401 108.31394 42.664062 110.41406 42.664062 C 112.3323 42.664063 114.37474 43.019401 116.54102 43.730469 L 117.4082 40.480469 C 114.86159 39.769401 112.54648 39.414062 110.46289 39.414062 z M 127.80273 40.035156 L 137.5 65.832031 C 136.59049 68.279427 135.68984 70.040365 134.79688 71.115234 C 133.9039 72.190104 132.76211 72.726562 131.37305 72.726562 C 130.38086 72.726562 129.25677 72.529687 128 72.132812 L 127.35547 75.232422 C 128.9099 75.811198 130.48086 76.101562 132.06836 76.101562 C 133.8543 76.101562 135.44102 75.348568 136.83008 73.84375 C 138.23568 72.338933 139.65013 69.684245 141.07227 65.880859 L 150.87109 40.035156 L 146.6543 40.035156 L 139.33594 60.646484 L 132.01953 40.035156 L 127.80273 40.035156 z M 84.914062 53.529297 L 84.914062 58.216797 C 83.888802 59.655469 82.699739 60.788412 81.34375 61.615234 C 79.98776 62.425521 78.622526 62.830078 77.25 62.830078 C 75.993229 62.830078 74.960677 62.47474 74.150391 61.763672 C 73.340104 61.052605 72.933594 60.11849 72.933594 58.960938 C 72.933594 57.68763 73.405078 56.677734 74.347656 55.933594 C 75.306771 55.189453 76.43086 54.686458 77.720703 54.421875 C 79.027084 54.140755 81.42487 53.84349 84.914062 53.529297 z "
             style="font-style:italic;font-variant:normal;font-weight:bold;font-stretch:normal;font-family:Consolas;-inkscape-font-specification:'Consolas Bold Italic';fill:#ffffff;fill-opacity:0.51716243;stroke:none;stroke-width:0.5291667;stroke-linecap:square;stroke-linejoin:miter;stroke-miterlimit:4;stroke-dasharray:none;stroke-opacity:1"
             id="path3809"
             d="m 39.423828,30.880859 v 35 H 57.703125 V 62.333984 H 43.490234 V 48.816406 H 57.009766 V 45.267578 H 43.490234 v -10.83789 h 14.064454 v -3.548829 z m 128.833982,0 -6.99414,35 h 4.06836 l 3.29883,-16.470703 h 13.19531 l 0.69531,-3.546875 h -13.19726 l 2.30859,-11.433593 h 14.48438 l 0.69531,-3.548829 z m 26.29297,0 7.71484,17.166016 -14.75781,17.833984 h 4.51367 l 11.6836,-14.335937 6.00195,14.335937 h 4.51367 l -7.63867,-17.833984 14.38672,-17.166016 h -4.46484 l -11.46094,13.867188 -5.82813,-13.867188 z m 32.54492,0 -6.99609,35 h 3.91992 l 6.00195,-30.013671 2.40625,14.361328 h 3.84571 l 8.16015,-14.361328 -6.00195,30.013671 h 3.91797 l 6.99609,-35 h -5.2832 l -9.00586,15.951172 -2.67773,-15.951172 z m 32.54297,0 -6.99414,35 h 19.04883 l 0.7207,-3.546875 h -14.98242 l 6.27539,-31.453125 z M 79.953125,39.414062 c -3.026171,0 -6.3,0.902605 -9.822266,2.705079 l 1.017579,2.777343 c 1.07487,-0.578776 2.355468,-1.07487 3.84375,-1.488281 1.504817,-0.429948 2.745051,-0.644531 3.720703,-0.644531 4.134114,0 6.201171,2.214714 6.201171,6.646484 v 1.240235 l -4.339843,0.347656 c -1.951302,0.148828 -3.638412,0.421484 -5.060547,0.818359 -1.422135,0.380339 -2.628907,0.909896 -3.621094,1.587891 -0.992187,0.661458 -1.745182,1.479427 -2.257812,2.455078 -0.51263,0.975651 -0.769532,2.101693 -0.769532,3.375 0,2.14974 0.728385,3.910677 2.183594,5.283203 1.471745,1.355989 3.167709,2.033203 5.085938,2.033203 3.786849,0 6.779167,-1.611328 8.978515,-4.835937 0,1.736328 0.156511,3.124219 0.470703,4.166015 h 3.845704 C 88.999739,64.127995 88.785156,62.127865 88.785156,59.878906 V 48.765625 c 0,-6.234245 -2.945052,-9.351563 -8.832031,-9.351563 z m 30.509765,0 c -3.22461,0 -5.81236,0.654557 -7.76367,1.960938 -1.9513,1.30638 -2.925782,3.074219 -2.925782,5.306641 0,1.02526 0.205727,1.952473 0.619142,2.779297 0.42994,0.826822 1.05104,1.537499 1.86133,2.132812 0.81028,0.595312 1.68632,1.049089 2.6289,1.363281 0.94258,0.297657 2.41315,0.753386 4.41407,1.365235 2.48046,0.760677 4.05143,1.495964 4.71289,2.207031 0.67799,0.694531 1.01757,1.487891 1.01757,2.380859 0,1.322917 -0.67721,2.390885 -2.0332,3.201172 -1.33945,0.79375 -3.08463,1.189453 -5.23437,1.189453 -2.48047,0 -4.80443,-0.511848 -6.97071,-1.537109 l -0.74414,3.347656 c 2.06706,0.959115 4.68828,1.439453 7.86328,1.439453 3.19154,0 5.82162,-0.710677 7.88868,-2.132812 2.06705,-1.438672 3.0996,-3.389584 3.0996,-5.853516 0,-1.256771 -0.27265,-2.356249 -0.81836,-3.298828 -0.52916,-0.959114 -1.33138,-1.770182 -2.40624,-2.431641 -1.07488,-0.677994 -2.46277,-1.25677 -4.16602,-1.736328 l -3.69727,-1.066406 c -1.68672,-0.479557 -2.8108,-0.99336 -3.37304,-1.539062 -0.56224,-0.56224 -0.84375,-1.214845 -0.84375,-1.958985 0,-1.174089 0.61223,-2.108203 1.83593,-2.802734 1.2237,-0.711068 2.88621,-1.066407 4.98633,-1.066407 1.91824,10e-7 3.96068,0.355339 6.12696,1.066407 l 0.86718,-3.25 c -2.54661,-0.711068 -4.86172,-1.066407 -6.94531,-1.066407 z m 17.33984,0.621094 9.69727,25.796875 c -0.90951,2.447396 -1.81016,4.208334 -2.70312,5.283203 -0.89298,1.07487 -2.03477,1.611328 -3.42383,1.611328 -0.99219,0 -2.11628,-0.196875 -3.37305,-0.59375 l -0.64453,3.09961 c 1.55443,0.578776 3.12539,0.86914 4.71289,0.86914 1.78594,0 3.37266,-0.752994 4.76172,-2.257812 1.4056,-1.504817 2.82005,-4.159505 4.24219,-7.962891 l 9.79882,-25.845703 h -4.21679 l -7.31836,20.611328 -7.31641,-20.611328 z M 84.914062,53.529297 v 4.6875 c -1.02526,1.438672 -2.214323,2.571615 -3.570312,3.398437 -1.35599,0.810287 -2.721224,1.214844 -4.09375,1.214844 -1.256771,0 -2.289323,-0.355338 -3.099609,-1.066406 -0.810287,-0.711067 -1.216797,-1.645182 -1.216797,-2.802734 0,-1.273308 0.471484,-2.283204 1.414062,-3.027344 0.959115,-0.744141 2.083204,-1.247136 3.373047,-1.511719 1.306381,-0.28112 3.704167,-0.578385 7.193359,-0.892578 z" />
        </g>
      </g>
      <g
         transform="translate(-6.7557828,-0.26458334)"
         id="g1046"
         style="display:inline;opacity:1;fill:#ffffff;fill-opacity:0.96109835;stroke:none;stroke-width:0.5291667;stroke-linecap:square;stroke-linejoin:miter;stroke-miterlimit:4;stroke-dasharray:none;stroke-opacity:1"
         inkscape:label="black_fill">
        <g
           aria-label="EasyFXML"
           style="font-style:normal;font-variant:normal;font-weight:bold;font-stretch:normal;font-size:50.79999924px;line-height:1.25;font-family:'DejaVu Sans Mono';-inkscape-font-specification:'DejaVu Sans Mono Bold';letter-spacing:0px;word-spacing:0px;fill:#ffffff;fill-opacity:0.96109835;stroke:none;stroke-width:0.5291667;stroke-linecap:square;stroke-linejoin:miter;stroke-miterlimit:4;stroke-dasharray:none;stroke-opacity:1"
           id="text1044">
          <path
             sodipodi:type="inkscape:offset"
             inkscape:radius="0"
             inkscape:original="M 37.035156 29.609375 L 37.035156 65.880859 L 62.232422 65.880859 L 62.232422 61.816406 L 41.861328 61.816406 L 41.861328 49.269531 L 60.708984 49.269531 L 60.708984 45.205078 L 41.861328 45.205078 L 41.861328 33.673828 L 62.080078 33.673828 L 62.080078 29.609375 L 37.035156 29.609375 z M 144.75391 29.609375 L 144.75391 65.880859 L 152.06836 65.880859 L 152.06836 50.132812 L 164.25977 50.132812 L 164.25977 44.138672 L 152.06836 44.138672 L 152.06836 35.603516 L 165.02344 35.603516 L 165.02344 29.609375 L 144.75391 29.609375 z M 166.74414 29.609375 L 175.07617 47.542969 L 166.0332 65.880859 L 174.06055 65.880859 L 179.24023 53.587891 L 184.47266 65.880859 L 192.70312 65.880859 L 183.66016 47.542969 L 192.09375 29.609375 L 184.11719 29.609375 L 179.49609 41.345703 L 174.82227 29.609375 L 166.74414 29.609375 z M 195.70508 29.609375 L 195.70508 65.880859 L 202.41211 65.880859 L 202.41211 36.925781 L 202.51367 36.925781 L 208.96484 65.880859 L 214.6543 65.880859 L 221.10547 36.925781 L 221.20703 36.925781 L 221.20703 65.880859 L 227.91406 65.880859 L 227.91406 29.609375 L 217.0918 29.609375 L 211.85938 55.212891 L 211.75781 55.212891 L 206.57812 29.609375 L 195.70508 29.609375 z M 233.1582 29.609375 L 233.1582 65.880859 L 253.42578 65.880859 L 253.42578 59.886719 L 240.47266 59.886719 L 240.47266 29.609375 L 233.1582 29.609375 z M 78.097656 39.007812 C 76.607523 39.007812 75.203613 39.160044 73.882812 39.464844 C 72.595879 39.769644 71.443734 40.277081 70.427734 40.988281 C 69.411734 41.665615 68.597881 42.564041 67.988281 43.681641 C 67.378681 44.799241 67.040389 46.171275 66.972656 47.796875 L 71.291016 47.796875 C 71.392616 45.866475 72.052284 44.562099 73.271484 43.884766 C 74.490684 43.173566 76.01495 42.818359 77.84375 42.818359 C 78.521083 42.818359 79.19962 42.869103 79.876953 42.970703 C 80.588153 43.072303 81.213993 43.275278 81.755859 43.580078 C 82.331593 43.884878 82.788286 44.324657 83.126953 44.900391 C 83.499486 45.476124 83.685547 46.239233 83.685547 47.1875 C 83.685547 48.0003 83.448743 48.62614 82.974609 49.066406 C 82.500476 49.472806 81.857722 49.794183 81.044922 50.03125 C 80.232122 50.23445 79.282952 50.403596 78.199219 50.539062 C 77.149352 50.640663 76.03299 50.809808 74.847656 51.046875 C 73.730056 51.250075 72.628655 51.505747 71.544922 51.810547 C 70.495055 52.115347 69.547839 52.572041 68.701172 53.181641 C 67.888372 53.757374 67.226749 54.51853 66.71875 55.466797 C 66.21075 56.415064 65.957031 57.634867 65.957031 59.125 C 65.957031 60.4458 66.176921 61.58103 66.617188 62.529297 C 67.09132 63.443697 67.719114 64.187939 68.498047 64.763672 C 69.27698 65.339405 70.190368 65.76227 71.240234 66.033203 C 72.323968 66.304136 73.459198 66.439453 74.644531 66.439453 C 76.473331 66.439453 78.166743 66.134991 79.724609 65.525391 C 81.316343 64.881924 82.703339 63.850134 83.888672 62.427734 C 83.888672 63.850134 84.212002 64.881924 84.855469 65.525391 C 85.532802 66.134991 86.429275 66.439453 87.546875 66.439453 C 88.867675 66.439453 89.901418 66.219564 90.646484 65.779297 L 90.646484 62.427734 C 90.138484 62.597068 89.696752 62.681641 89.324219 62.681641 C 88.646885 62.681641 88.240935 62.442883 88.105469 61.96875 C 88.003869 61.494617 87.953125 60.750375 87.953125 59.734375 L 87.953125 46.220703 C 87.953125 44.696703 87.665577 43.461939 87.089844 42.513672 C 86.51411 41.565405 85.752954 40.836125 84.804688 40.328125 C 83.856421 39.786258 82.788849 39.431052 81.603516 39.261719 C 80.452049 39.092385 79.28299 39.007812 78.097656 39.007812 z M 103.35156 39.007812 C 102.2001 39.007812 101.03104 39.160044 99.845703 39.464844 C 98.694236 39.735777 97.645532 40.175556 96.697266 40.785156 C 95.782866 41.36089 95.019756 42.123999 94.410156 43.072266 C 93.834423 44.020532 93.546875 45.155763 93.546875 46.476562 C 93.546875 48.169896 93.96974 49.489233 94.816406 50.4375 C 95.663073 51.385767 96.71373 52.131961 97.966797 52.673828 C 99.25373 53.181828 100.64268 53.587778 102.13281 53.892578 C 103.62295 54.163511 104.99498 54.484889 106.24805 54.857422 C 107.53498 55.196089 108.6006 55.652782 109.44727 56.228516 C 110.29393 56.804249 110.7168 57.651931 110.7168 58.769531 C 110.7168 59.582331 110.51382 60.258915 110.10742 60.800781 C 109.70102 61.308781 109.17667 61.697817 108.5332 61.96875 C 107.9236 62.239683 107.24702 62.427697 106.50195 62.529297 C 105.75689 62.630897 105.04452 62.681641 104.36719 62.681641 C 103.48665 62.681641 102.62401 62.597068 101.77734 62.427734 C 100.96454 62.258401 100.21835 61.985815 99.541016 61.613281 C 98.897549 61.206881 98.373197 60.682529 97.966797 60.039062 C 97.560397 59.361729 97.340507 58.549829 97.306641 57.601562 L 92.988281 57.601562 C 93.056015 59.227163 93.394306 60.614158 94.003906 61.765625 C 94.613506 62.883225 95.427359 63.798566 96.443359 64.509766 C 97.459359 65.187099 98.626466 65.677622 99.947266 65.982422 C 101.26807 66.287222 102.65701 66.439453 104.11328 66.439453 C 105.43408 66.439453 106.75537 66.304136 108.07617 66.033203 C 109.43084 65.796136 110.63373 65.356357 111.68359 64.712891 C 112.76733 64.069425 113.62997 63.221742 114.27344 62.171875 C 114.95077 61.122008 115.28906 59.802671 115.28906 58.210938 C 115.28906 56.957871 115.03534 55.907214 114.52734 55.060547 C 114.05321 54.21388 113.41046 53.520382 112.59766 52.978516 C 111.81872 52.402782 110.90338 51.946089 109.85352 51.607422 C 108.83752 51.268755 107.78881 50.979254 106.70508 50.742188 C 105.68908 50.505121 104.67225 50.285231 103.65625 50.082031 C 102.64025 49.844965 101.72686 49.574331 100.91406 49.269531 C 100.10126 48.930865 99.422726 48.524915 98.880859 48.050781 C 98.372859 47.542781 98.119141 46.914989 98.119141 46.169922 C 98.119141 45.492589 98.288286 44.951322 98.626953 44.544922 C 98.96562 44.104655 99.405399 43.766364 99.947266 43.529297 C 100.48913 43.258364 101.0831 43.072303 101.72656 42.970703 C 102.4039 42.869103 103.06356 42.818359 103.70703 42.818359 C 104.41823 42.818359 105.11173 42.902932 105.78906 43.072266 C 106.50026 43.207732 107.14497 43.444536 107.7207 43.783203 C 108.29644 44.12187 108.77004 44.578564 109.14258 45.154297 C 109.51511 45.696164 109.735 46.391615 109.80273 47.238281 L 114.12109 47.238281 C 114.01949 45.646548 113.6812 44.325257 113.10547 43.275391 C 112.52974 42.191657 111.74971 41.343975 110.76758 40.734375 C 109.81931 40.090908 108.71986 39.651129 107.4668 39.414062 C 106.21373 39.143129 104.8417 39.007813 103.35156 39.007812 z M 117.2207 39.617188 L 127.63477 65.728516 L 125.85547 70.148438 C 125.55067 70.927371 125.09397 71.519381 124.48438 71.925781 C 123.90864 72.366048 123.18131 72.585937 122.30078 72.585938 C 121.96211 72.585937 121.5373 72.518279 121.0293 72.382812 C 120.55516 72.281212 120.1323 72.145896 119.75977 71.976562 L 119.75977 75.939453 C 120.2339 76.108786 120.72442 76.227189 121.23242 76.294922 C 121.74042 76.362655 122.24981 76.396484 122.75781 76.396484 C 123.70608 76.396484 124.53489 76.261168 125.24609 75.990234 C 125.99116 75.753168 126.65278 75.347218 127.22852 74.771484 C 127.83812 74.229618 128.37938 73.517252 128.85352 72.636719 C 129.36152 71.756185 129.86895 70.673652 130.37695 69.386719 L 141.80664 39.617188 L 137.23438 39.617188 L 129.86914 61.105469 L 129.76758 61.105469 L 122.09766 39.617188 L 117.2207 39.617188 z M 83.634766 52.318359 L 83.634766 56.736328 C 83.634766 57.345928 83.482534 58.00755 83.177734 58.71875 C 82.872934 59.396083 82.399326 60.038837 81.755859 60.648438 C 81.112393 61.224171 80.283578 61.714694 79.267578 62.121094 C 78.251578 62.493627 77.031775 62.681641 75.609375 62.681641 C 74.932042 62.681641 74.289288 62.613982 73.679688 62.478516 C 73.070088 62.343049 72.526868 62.121206 72.052734 61.816406 C 71.612468 61.511606 71.240347 61.122571 70.935547 60.648438 C 70.664614 60.140437 70.529297 59.531513 70.529297 58.820312 C 70.529297 57.736579 70.766101 56.888897 71.240234 56.279297 C 71.748234 55.63583 72.390989 55.145307 73.169922 54.806641 C 73.948855 54.467974 74.830367 54.23117 75.8125 54.095703 C 76.794633 53.92637 77.758765 53.791053 78.707031 53.689453 C 79.689165 53.553986 80.62142 53.401755 81.501953 53.232422 C 82.382486 53.029222 83.092899 52.724759 83.634766 52.318359 z "
             style="font-style:normal;font-variant:normal;font-weight:bold;font-stretch:condensed;font-family:'Helvetica Neue';-inkscape-font-specification:'Helvetica Neue Bold Condensed'"
             id="path4060"
             d="M 37.035156,29.609375 V 65.880859 H 62.232422 V 61.816406 H 41.861328 V 49.269531 H 60.708984 V 45.205078 H 41.861328 v -11.53125 h 20.21875 v -4.064453 z m 107.718754,0 v 36.271484 h 7.31445 V 50.132812 h 12.19141 v -5.99414 h -12.19141 v -8.535156 h 12.95508 v -5.994141 z m 21.99023,0 8.33203,17.933594 -9.04297,18.33789 h 8.02735 l 5.17968,-12.292968 5.23243,12.292968 h 8.23046 l -9.04296,-18.33789 8.43359,-17.933594 h -7.97656 l -4.6211,11.736328 -4.67382,-11.736328 z m 28.96094,0 v 36.271484 h 6.70703 V 36.925781 h 0.10156 l 6.45117,28.955078 h 5.68946 l 6.45117,-28.955078 h 0.10156 v 28.955078 h 6.70703 V 29.609375 H 217.0918 l -5.23242,25.603516 h -0.10157 l -5.17969,-25.603516 z m 37.45312,0 v 36.271484 h 20.26758 v -5.99414 H 240.47266 V 29.609375 Z M 78.097656,39.007812 c -1.490133,0 -2.894043,0.152232 -4.214844,0.457032 -1.286933,0.3048 -2.439078,0.812237 -3.455078,1.523437 -1.016,0.677334 -1.829853,1.57576 -2.439453,2.69336 -0.6096,1.1176 -0.947892,2.489634 -1.015625,4.115234 h 4.31836 c 0.1016,-1.9304 0.761268,-3.234776 1.980468,-3.912109 1.2192,-0.7112 2.743466,-1.066407 4.572266,-1.066407 0.677333,0 1.35587,0.05074 2.033203,0.152344 0.7112,0.1016 1.33704,0.304575 1.878906,0.609375 0.575734,0.3048 1.032427,0.744579 1.371094,1.320313 0.372533,0.575733 0.558594,1.338842 0.558594,2.287109 0,0.8128 -0.236804,1.43864 -0.710938,1.878906 -0.474133,0.4064 -1.116887,0.727777 -1.929687,0.964844 -0.8128,0.2032 -1.76197,0.372346 -2.845703,0.507812 -1.049867,0.101601 -2.166229,0.270746 -3.351563,0.507813 -1.1176,0.2032 -2.219001,0.458872 -3.302734,0.763672 -1.049867,0.3048 -1.997083,0.761494 -2.84375,1.371094 -0.8128,0.575733 -1.474423,1.336889 -1.982422,2.285156 -0.508,0.948267 -0.761719,2.16807 -0.761719,3.658203 0,1.3208 0.21989,2.45603 0.660157,3.404297 0.474132,0.9144 1.101926,1.658642 1.880859,2.234375 0.778933,0.575733 1.692321,0.998598 2.742187,1.269531 1.083734,0.270933 2.218964,0.40625 3.404297,0.40625 1.8288,0 3.522212,-0.304462 5.080078,-0.914062 1.591734,-0.643467 2.97873,-1.675257 4.164063,-3.097657 0,1.4224 0.32333,2.45419 0.966797,3.097657 0.677333,0.6096 1.573806,0.914062 2.691406,0.914062 1.3208,0 2.354543,-0.219889 3.099609,-0.660156 v -3.351563 c -0.508,0.169334 -0.949732,0.253907 -1.322265,0.253907 -0.677334,0 -1.083284,-0.238758 -1.21875,-0.712891 -0.1016,-0.474133 -0.152344,-1.218375 -0.152344,-2.234375 V 46.220703 c 0,-1.524 -0.287548,-2.758764 -0.863281,-3.707031 -0.575734,-0.948267 -1.33689,-1.677547 -2.285156,-2.185547 -0.948267,-0.541867 -2.015839,-0.897073 -3.201172,-1.066406 -1.151467,-0.169334 -2.320526,-0.253907 -3.50586,-0.253907 z m 25.253904,0 c -1.15146,0 -2.32052,0.152232 -3.505857,0.457032 -1.151467,0.270933 -2.200171,0.710712 -3.148437,1.320312 -0.9144,0.575734 -1.67751,1.338843 -2.28711,2.28711 -0.575733,0.948266 -0.863281,2.083497 -0.863281,3.404296 0,1.693334 0.422865,3.012671 1.269531,3.960938 0.846667,0.948267 1.897324,1.694461 3.150391,2.236328 1.286933,0.508 2.675883,0.91395 4.166013,1.21875 1.49014,0.270933 2.86217,0.592311 4.11524,0.964844 1.28693,0.338667 2.35255,0.79536 3.19922,1.371094 0.84666,0.575733 1.26953,1.423415 1.26953,2.541015 0,0.8128 -0.20298,1.489384 -0.60938,2.03125 -0.4064,0.508 -0.93075,0.897036 -1.57422,1.167969 -0.6096,0.270933 -1.28618,0.458947 -2.03125,0.560547 -0.74506,0.1016 -1.45743,0.152344 -2.13476,0.152344 -0.88054,0 -1.74318,-0.08457 -2.58985,-0.253907 -0.8128,-0.169333 -1.55899,-0.441919 -2.236324,-0.814453 -0.643467,-0.4064 -1.167819,-0.930752 -1.574219,-1.574219 -0.4064,-0.677333 -0.62629,-1.489233 -0.660156,-2.4375 h -4.31836 c 0.06773,1.625601 0.406025,3.012596 1.015625,4.164063 0.6096,1.1176 1.423453,2.032941 2.439453,2.744141 1.016,0.677333 2.183107,1.167856 3.503907,1.472656 1.320804,0.3048 2.709744,0.457031 4.166014,0.457031 1.3208,0 2.64209,-0.135317 3.96289,-0.40625 1.35467,-0.237067 2.55756,-0.676846 3.60742,-1.320312 1.08374,-0.643466 1.94638,-1.491149 2.58985,-2.541016 0.67733,-1.049867 1.01562,-2.369204 1.01562,-3.960937 0,-1.253067 -0.25372,-2.303724 -0.76172,-3.150391 -0.47413,-0.846667 -1.11688,-1.540165 -1.92968,-2.082031 -0.77894,-0.575734 -1.69428,-1.032427 -2.74414,-1.371094 -1.016,-0.338667 -2.06471,-0.628168 -3.14844,-0.865234 -1.016,-0.237067 -2.03283,-0.456957 -3.04883,-0.660157 -1.016,-0.237066 -1.92939,-0.5077 -2.74219,-0.8125 -0.8128,-0.338666 -1.491334,-0.744616 -2.033201,-1.21875 -0.508,-0.508 -0.761718,-1.135792 -0.761718,-1.880859 0,-0.677333 0.169145,-1.2186 0.507812,-1.625 0.338667,-0.440267 0.778446,-0.778558 1.320313,-1.015625 0.541864,-0.270933 1.135834,-0.456994 1.779294,-0.558594 0.67734,-0.1016 1.337,-0.152344 1.98047,-0.152344 0.7112,0 1.4047,0.08457 2.08203,0.253907 0.7112,0.135466 1.35591,0.37227 1.93164,0.710937 0.57574,0.338667 1.04934,0.795361 1.42188,1.371094 0.37253,0.541867 0.59242,1.237318 0.66015,2.083984 h 4.31836 c -0.1016,-1.591733 -0.43989,-2.913024 -1.01562,-3.96289 -0.57573,-1.083734 -1.35576,-1.931416 -2.33789,-2.541016 -0.94827,-0.643467 -2.04772,-1.083246 -3.30078,-1.320313 -1.25307,-0.270933 -2.6251,-0.406249 -4.11524,-0.40625 z m 13.86914,0.609376 10.41407,26.111328 -1.7793,4.419922 c -0.3048,0.778933 -0.7615,1.370943 -1.37109,1.777343 -0.57574,0.440267 -1.30307,0.660156 -2.1836,0.660157 -0.33867,-10e-7 -0.76348,-0.06766 -1.27148,-0.203126 -0.47414,-0.1016 -0.897,-0.236916 -1.26953,-0.40625 v 3.962891 c 0.47413,0.169333 0.96465,0.287736 1.47265,0.355469 0.508,0.06773 1.01739,0.101562 1.52539,0.101562 0.94827,0 1.77708,-0.135316 2.48828,-0.40625 0.74507,-0.237066 1.40669,-0.643016 1.98243,-1.21875 0.6096,-0.541866 1.15086,-1.254232 1.625,-2.134765 0.508,-0.880534 1.01543,-1.963067 1.52343,-3.25 l 11.42969,-29.769531 h -4.57226 l -7.36524,21.488281 h -0.10156 L 122.09766,39.617188 Z M 83.634766,52.318359 v 4.417969 c 0,0.6096 -0.152232,1.271222 -0.457032,1.982422 -0.3048,0.677333 -0.778408,1.320087 -1.421875,1.929688 -0.643466,0.575733 -1.472281,1.066256 -2.488281,1.472656 -1.016,0.372533 -2.235803,0.560547 -3.658203,0.560547 -0.677333,0 -1.320087,-0.06766 -1.929687,-0.203125 -0.6096,-0.135467 -1.15282,-0.35731 -1.626954,-0.66211 -0.440266,-0.3048 -0.812387,-0.693835 -1.117187,-1.167968 -0.270933,-0.508001 -0.40625,-1.116925 -0.40625,-1.828126 0,-1.083733 0.236804,-1.931415 0.710937,-2.541015 0.508,-0.643467 1.150755,-1.13399 1.929688,-1.472656 0.778933,-0.338667 1.660445,-0.575471 2.642578,-0.710938 0.982133,-0.169333 1.946265,-0.30465 2.894531,-0.40625 0.982134,-0.135467 1.914389,-0.287698 2.794922,-0.457031 0.880533,-0.2032 1.590946,-0.507663 2.132813,-0.914063 z" />
        </g>
      </g>
    </g>
  </g>
</svg>
